<mxfile host="app.diagrams.net" agent="Mozilla/5.0 (Windows NT 10.0; Win64; x64) AppleWebKit/537.36 (KHTML, like Gecko) Chrome/131.0.0.0 Safari/537.36" version="25.0.1">
  <diagram name="Page-1" id="WPpZJfMJTmWMVJod0Qd_">
    <mxGraphModel dx="2918" dy="2008" grid="1" gridSize="10" guides="1" tooltips="1" connect="1" arrows="1" fold="1" page="1" pageScale="1" pageWidth="850" pageHeight="1100" math="0" shadow="0">
      <root>
        <mxCell id="0" />
        <mxCell id="1" parent="0" />
        <mxCell id="JA-8IfDikwryvuSQAZaI-3" value="Flat hourly Electrolitic Hydrogen demand&amp;nbsp;&lt;div&gt;&lt;font style=&quot;font-size: 9px;&quot;&gt;(from annual electrolitic hydrogen supply data)&lt;/font&gt;&lt;/div&gt;" style="rounded=0;whiteSpace=wrap;html=1;" parent="1" vertex="1">
          <mxGeometry x="184" y="202" width="200" height="60" as="geometry" />
        </mxCell>
        <mxCell id="iWcmuNhnE22Qy_n3SRqi-5" value="" style="edgeStyle=orthogonalEdgeStyle;rounded=0;orthogonalLoop=1;jettySize=auto;html=1;exitX=1.013;exitY=0.169;exitDx=0;exitDy=0;exitPerimeter=0;" edge="1" parent="1" source="iWcmuNhnE22Qy_n3SRqi-28" target="JA-8IfDikwryvuSQAZaI-3">
          <mxGeometry relative="1" as="geometry">
            <mxPoint x="97" y="240" as="sourcePoint" />
          </mxGeometry>
        </mxCell>
        <mxCell id="iWcmuNhnE22Qy_n3SRqi-24" style="edgeStyle=orthogonalEdgeStyle;rounded=0;orthogonalLoop=1;jettySize=auto;html=1;exitX=0.5;exitY=0;exitDx=0;exitDy=0;entryX=0;entryY=0.5;entryDx=0;entryDy=0;" edge="1" parent="1" source="iWcmuNhnE22Qy_n3SRqi-28" target="iWcmuNhnE22Qy_n3SRqi-22">
          <mxGeometry relative="1" as="geometry">
            <mxPoint x="97" y="225" as="sourcePoint" />
          </mxGeometry>
        </mxCell>
        <mxCell id="iWcmuNhnE22Qy_n3SRqi-60" style="edgeStyle=orthogonalEdgeStyle;rounded=0;orthogonalLoop=1;jettySize=auto;html=1;exitX=1;exitY=0.5;exitDx=0;exitDy=0;entryX=0.307;entryY=1.024;entryDx=0;entryDy=0;entryPerimeter=0;" edge="1" parent="1" source="iWcmuNhnE22Qy_n3SRqi-2" target="iWcmuNhnE22Qy_n3SRqi-33">
          <mxGeometry relative="1" as="geometry" />
        </mxCell>
        <mxCell id="iWcmuNhnE22Qy_n3SRqi-2" value="Renewable Avaialbility Factors" style="rounded=0;whiteSpace=wrap;html=1;" vertex="1" parent="1">
          <mxGeometry x="183" y="397" width="200" height="60" as="geometry" />
        </mxCell>
        <mxCell id="iWcmuNhnE22Qy_n3SRqi-22" value="Power Sector Capacity data (including all the power techs and battery projections)" style="ellipse;whiteSpace=wrap;html=1;" vertex="1" parent="1">
          <mxGeometry x="189" y="65" width="190" height="103" as="geometry" />
        </mxCell>
        <mxCell id="iWcmuNhnE22Qy_n3SRqi-25" value="Maximum Storage Potential" style="ellipse;whiteSpace=wrap;html=1;" vertex="1" parent="1">
          <mxGeometry x="660" y="25" width="120" height="80" as="geometry" />
        </mxCell>
        <mxCell id="iWcmuNhnE22Qy_n3SRqi-53" style="edgeStyle=orthogonalEdgeStyle;rounded=0;orthogonalLoop=1;jettySize=auto;html=1;exitX=0.5;exitY=1;exitDx=0;exitDy=0;entryX=0;entryY=0.5;entryDx=0;entryDy=0;" edge="1" parent="1" source="iWcmuNhnE22Qy_n3SRqi-28" target="iWcmuNhnE22Qy_n3SRqi-2">
          <mxGeometry relative="1" as="geometry" />
        </mxCell>
        <mxCell id="iWcmuNhnE22Qy_n3SRqi-59" style="edgeStyle=orthogonalEdgeStyle;rounded=0;orthogonalLoop=1;jettySize=auto;html=1;exitX=1;exitY=0.75;exitDx=0;exitDy=0;entryX=0;entryY=0.5;entryDx=0;entryDy=0;" edge="1" parent="1" source="iWcmuNhnE22Qy_n3SRqi-28" target="iWcmuNhnE22Qy_n3SRqi-58">
          <mxGeometry relative="1" as="geometry" />
        </mxCell>
        <mxCell id="iWcmuNhnE22Qy_n3SRqi-28" value="TYNDP 2024" style="rounded=1;whiteSpace=wrap;html=1;" vertex="1" parent="1">
          <mxGeometry x="-139" y="210" width="220" height="124" as="geometry" />
        </mxCell>
        <mxCell id="iWcmuNhnE22Qy_n3SRqi-40" value="" style="edgeStyle=orthogonalEdgeStyle;rounded=0;orthogonalLoop=1;jettySize=auto;html=1;" edge="1" parent="1" source="iWcmuNhnE22Qy_n3SRqi-32" target="iWcmuNhnE22Qy_n3SRqi-25">
          <mxGeometry relative="1" as="geometry" />
        </mxCell>
        <mxCell id="iWcmuNhnE22Qy_n3SRqi-32" value="&lt;div&gt;&lt;br&gt;&lt;/div&gt;&lt;div&gt;&lt;div&gt;salt cavern potential&lt;/div&gt;&lt;div&gt;&lt;font style=&quot;font-size: 9px;&quot;&gt;(Caglayan, Dilara Gulcin, et al. 2020)&lt;/font&gt;&lt;/div&gt;&lt;/div&gt;" style="rounded=1;whiteSpace=wrap;html=1;" vertex="1" parent="1">
          <mxGeometry x="660" y="-70.5" width="120" height="60" as="geometry" />
        </mxCell>
        <mxCell id="iWcmuNhnE22Qy_n3SRqi-33" value="&lt;b&gt;&lt;font style=&quot;font-size: 24px;&quot;&gt;Calliope Model&lt;/font&gt;&lt;/b&gt;" style="shape=parallelogram;perimeter=parallelogramPerimeter;whiteSpace=wrap;html=1;fixedSize=1;" vertex="1" parent="1">
          <mxGeometry x="500" y="209" width="310" height="161" as="geometry" />
        </mxCell>
        <mxCell id="iWcmuNhnE22Qy_n3SRqi-41" style="edgeStyle=orthogonalEdgeStyle;rounded=0;orthogonalLoop=1;jettySize=auto;html=1;exitX=0.5;exitY=1;exitDx=0;exitDy=0;entryX=0.71;entryY=0.015;entryDx=0;entryDy=0;entryPerimeter=0;" edge="1" parent="1" source="iWcmuNhnE22Qy_n3SRqi-46" target="iWcmuNhnE22Qy_n3SRqi-33">
          <mxGeometry relative="1" as="geometry" />
        </mxCell>
        <mxCell id="iWcmuNhnE22Qy_n3SRqi-46" value="&lt;b&gt;&lt;font style=&quot;font-size: 14px;&quot;&gt;Maximum Constraint&lt;/font&gt;&lt;/b&gt;" style="text;html=1;align=center;verticalAlign=middle;whiteSpace=wrap;rounded=0;" vertex="1" parent="1">
          <mxGeometry x="690" y="147" width="60" height="30" as="geometry" />
        </mxCell>
        <mxCell id="iWcmuNhnE22Qy_n3SRqi-49" value="" style="endArrow=none;html=1;rounded=0;entryX=0.5;entryY=1;entryDx=0;entryDy=0;exitX=0.5;exitY=0;exitDx=0;exitDy=0;" edge="1" parent="1" source="iWcmuNhnE22Qy_n3SRqi-46" target="iWcmuNhnE22Qy_n3SRqi-25">
          <mxGeometry width="50" height="50" relative="1" as="geometry">
            <mxPoint x="620" y="220" as="sourcePoint" />
            <mxPoint x="670" y="170" as="targetPoint" />
          </mxGeometry>
        </mxCell>
        <mxCell id="iWcmuNhnE22Qy_n3SRqi-50" value="&lt;b&gt;&lt;font style=&quot;font-size: 14px;&quot;&gt;Equality Constraint&lt;/font&gt;&lt;/b&gt;" style="text;html=1;align=center;verticalAlign=middle;whiteSpace=wrap;rounded=0;" vertex="1" parent="1">
          <mxGeometry x="570" y="146" width="60" height="30" as="geometry" />
        </mxCell>
        <mxCell id="iWcmuNhnE22Qy_n3SRqi-51" value="" style="endArrow=none;html=1;rounded=0;entryX=1;entryY=0.5;entryDx=0;entryDy=0;exitX=0.5;exitY=0;exitDx=0;exitDy=0;" edge="1" parent="1" source="iWcmuNhnE22Qy_n3SRqi-50" target="iWcmuNhnE22Qy_n3SRqi-22">
          <mxGeometry width="50" height="50" relative="1" as="geometry">
            <mxPoint x="570" y="80" as="sourcePoint" />
            <mxPoint x="620" y="30" as="targetPoint" />
            <Array as="points">
              <mxPoint x="600" y="117" />
            </Array>
          </mxGeometry>
        </mxCell>
        <mxCell id="iWcmuNhnE22Qy_n3SRqi-52" style="edgeStyle=orthogonalEdgeStyle;rounded=0;orthogonalLoop=1;jettySize=auto;html=1;exitX=0.5;exitY=1;exitDx=0;exitDy=0;" edge="1" parent="1" source="iWcmuNhnE22Qy_n3SRqi-50">
          <mxGeometry relative="1" as="geometry">
            <mxPoint x="600" y="210" as="targetPoint" />
          </mxGeometry>
        </mxCell>
        <mxCell id="iWcmuNhnE22Qy_n3SRqi-57" value="" style="edgeStyle=orthogonalEdgeStyle;rounded=0;orthogonalLoop=1;jettySize=auto;html=1;" edge="1" parent="1" source="iWcmuNhnE22Qy_n3SRqi-54" target="iWcmuNhnE22Qy_n3SRqi-33">
          <mxGeometry relative="1" as="geometry" />
        </mxCell>
        <mxCell id="iWcmuNhnE22Qy_n3SRqi-54" value="Scenario Custom Constraint" style="ellipse;whiteSpace=wrap;html=1;" vertex="1" parent="1">
          <mxGeometry x="890" y="249" width="120" height="80" as="geometry" />
        </mxCell>
        <mxCell id="iWcmuNhnE22Qy_n3SRqi-58" value="Hourly Electricity Demand" style="rounded=0;whiteSpace=wrap;html=1;" vertex="1" parent="1">
          <mxGeometry x="183" y="274" width="200" height="60" as="geometry" />
        </mxCell>
        <mxCell id="iWcmuNhnE22Qy_n3SRqi-61" style="edgeStyle=orthogonalEdgeStyle;rounded=0;orthogonalLoop=1;jettySize=auto;html=1;exitX=1;exitY=0.5;exitDx=0;exitDy=0;entryX=0.057;entryY=0.141;entryDx=0;entryDy=0;entryPerimeter=0;" edge="1" parent="1" source="JA-8IfDikwryvuSQAZaI-3" target="iWcmuNhnE22Qy_n3SRqi-33">
          <mxGeometry relative="1" as="geometry" />
        </mxCell>
        <mxCell id="iWcmuNhnE22Qy_n3SRqi-62" style="edgeStyle=orthogonalEdgeStyle;rounded=0;orthogonalLoop=1;jettySize=auto;html=1;exitX=1;exitY=0.5;exitDx=0;exitDy=0;entryX=0.026;entryY=0.591;entryDx=0;entryDy=0;entryPerimeter=0;" edge="1" parent="1" source="iWcmuNhnE22Qy_n3SRqi-58" target="iWcmuNhnE22Qy_n3SRqi-33">
          <mxGeometry relative="1" as="geometry" />
        </mxCell>
        <mxCell id="iWcmuNhnE22Qy_n3SRqi-64" value="" style="edgeStyle=orthogonalEdgeStyle;rounded=0;orthogonalLoop=1;jettySize=auto;html=1;" edge="1" parent="1" source="iWcmuNhnE22Qy_n3SRqi-63" target="iWcmuNhnE22Qy_n3SRqi-54">
          <mxGeometry relative="1" as="geometry" />
        </mxCell>
        <mxCell id="iWcmuNhnE22Qy_n3SRqi-63" value="&lt;div&gt;Additionality Regulation&lt;/div&gt;" style="rounded=1;whiteSpace=wrap;html=1;" vertex="1" parent="1">
          <mxGeometry x="1110" y="250" width="180" height="79" as="geometry" />
        </mxCell>
      </root>
    </mxGraphModel>
  </diagram>
</mxfile>
